<?xml version="1.0" encoding="utf-8"?>
<!-- Generator: Adobe Illustrator 23.0.5, SVG Export Plug-In . SVG Version: 6.00 Build 0)  -->
<svg version="1.1" id="Layer_1" xmlns="http://www.w3.org/2000/svg" xmlns:xlink="http://www.w3.org/1999/xlink" x="0px" y="0px"
	 viewBox="0 0 228 85.9" style="enable-background:new 0 0 228 85.9;" xml:space="preserve">
<title>Artboard 2</title>
<g>
	<g>
		<g>
			<path d="M61.5,13.4V35h-3.2V13.4H61.5z"/>
		</g>
		<g>
			<path d="M70.5,20.3c2,0,3.6,0.7,4.9,2.1c1.3,1.4,1.9,3.2,1.9,5.5c0,0.3,0,0.7-0.1,1.2H66.6c0.2,1.2,0.7,2.1,1.5,2.8
				c0.8,0.6,1.7,0.9,2.8,0.9c1.5,0,2.9-0.5,4.2-1.5l1.6,2.2c-1.6,1.4-3.6,2-5.9,2c-2.2,0-3.9-0.7-5.3-2.1c-1.4-1.4-2-3.2-2-5.5
				c0-2.3,0.7-4.1,2-5.5C66.6,21,68.4,20.3,70.5,20.3z M70.4,23.1c-1.1,0-1.9,0.3-2.6,1c-0.6,0.6-1.1,1.5-1.2,2.6h7.5
				c-0.2-1.1-0.6-2-1.2-2.6C72.2,23.4,71.4,23.1,70.4,23.1z"/>
		</g>
		<g>
			<path d="M92.9,20.6V35h-3.1v-1.7c-1.1,1.4-2.6,2.1-4.5,2.1c-2,0-3.7-0.7-5.1-2.1c-1.4-1.4-2.1-3.2-2.1-5.4c0-2.2,0.7-4,2.1-5.4
				c1.4-1.4,3.1-2.1,5.1-2.1c1.9,0,3.4,0.7,4.5,2.1v-1.7H92.9z M85.6,23.2c-1.3,0-2.4,0.4-3.2,1.3c-0.8,0.9-1.2,2-1.2,3.3
				c0,1.3,0.4,2.4,1.2,3.3c0.8,0.9,1.8,1.3,3.2,1.3c1.3,0,2.3-0.4,3.1-1.3c0.8-0.9,1.2-2,1.2-3.3s-0.4-2.4-1.2-3.3
				C88,23.7,86.9,23.2,85.6,23.2z"/>
		</g>
		<g>
			<path d="M103.1,20.3c0.9,0,1.7,0.1,2.4,0.4l-0.8,3.1c-0.7-0.4-1.5-0.5-2.4-0.5c-1,0-1.8,0.3-2.5,1c-0.6,0.7-0.9,1.6-0.9,2.8V35
				h-3.1V20.6h3.1v1.6C99.8,20.9,101.2,20.3,103.1,20.3z"/>
		</g>
		<g>
			<path d="M114.2,20.3c1.7,0,3.1,0.5,4.2,1.6c1.1,1.1,1.6,2.4,1.6,4.1v9h-3.2v-8c0-1.2-0.3-2.1-0.9-2.8c-0.6-0.7-1.4-1-2.5-1
				c-1.1,0-1.9,0.3-2.7,1c-0.7,0.7-1.1,1.6-1.1,2.8v8h-3.2V20.6h3.1v1.8C110.7,21,112.2,20.3,114.2,20.3z"/>
		</g>
		<g>
			<path d="M73.2,44.3v14.4H70V57c-1.1,1.4-2.6,2.1-4.5,2.1c-2,0-3.7-0.7-5.1-2.1c-1.4-1.4-2.1-3.2-2.1-5.4c0-2.2,0.7-4,2.1-5.4
				c1.4-1.4,3.1-2.1,5.1-2.1c1.9,0,3.4,0.7,4.5,2.1v-1.7H73.2z M65.9,46.9c-1.3,0-2.4,0.4-3.2,1.3c-0.8,0.9-1.2,2-1.2,3.3
				c0,1.3,0.4,2.4,1.2,3.3c0.8,0.9,1.8,1.3,3.2,1.3c1.3,0,2.3-0.4,3.1-1.3c0.8-0.9,1.2-2,1.2-3.3s-0.4-2.4-1.2-3.3
				C68.2,47.3,67.2,46.9,65.9,46.9z"/>
		</g>
		<g>
			<path d="M85.9,44.3v2.9h-5.5v6.3c0,0.9,0.2,1.6,0.6,2c0.4,0.4,1,0.7,1.7,0.7c0.9,0,1.9-0.3,2.9-1l1.2,2.5c-1.4,1-2.9,1.4-4.4,1.4
				c-1.7,0-2.9-0.5-3.8-1.4c-0.9-0.9-1.3-2.3-1.3-4.2v-6.3h-2.9v-2.9h2.9V40h3.2v4.4H85.9z"/>
		</g>
		<g>
			<path d="M98.9,37.1V46c1-1.4,2.4-2.1,4.4-2.1c1.7,0,3.1,0.5,4.2,1.6c1.1,1.1,1.6,2.4,1.6,4.1v9H106v-8c0-1.2-0.3-2.1-0.9-2.8
				c-0.6-0.7-1.4-1-2.5-1c-1.1,0-1.9,0.3-2.7,1c-0.7,0.7-1.1,1.6-1.1,2.8v8h-3.2V37.1H98.9z"/>
		</g>
		<g>
			<path d="M114.6,44.9c1.2-0.7,2.5-1,4-1c1.5,0,2.8,0.3,4,1c1.2,0.7,2.1,1.6,2.8,2.7c0.7,1.2,1,2.4,1,3.9c0,1.4-0.3,2.7-1,3.9
				c-0.7,1.2-1.6,2.1-2.8,2.7c-1.2,0.7-2.5,1-4,1c-1.5,0-2.8-0.3-4-1c-1.2-0.7-2.1-1.6-2.8-2.7c-0.7-1.2-1-2.4-1-3.9
				c0-1.4,0.3-2.7,1-3.9C112.5,46.5,113.4,45.6,114.6,44.9z M121.8,48.2c-0.9-0.9-1.9-1.3-3.2-1.3c-1.3,0-2.4,0.4-3.2,1.3
				c-0.9,0.9-1.3,2-1.3,3.3s0.4,2.5,1.3,3.3c0.9,0.9,1.9,1.3,3.2,1.3c1.3,0,2.4-0.4,3.2-1.3c0.9-0.9,1.3-2,1.3-3.3
				S122.6,49.1,121.8,48.2z"/>
		</g>
		<g>
			<path d="M145.9,43.9c1.7,0,3.1,0.5,4.2,1.6c1.1,1.1,1.6,2.4,1.6,4.1v9h-3.2v-8c0-1.2-0.3-2.1-0.9-2.8c-0.6-0.7-1.4-1-2.5-1
				c-1.1,0-1.9,0.3-2.7,1c-0.7,0.7-1.1,1.6-1.1,2.8v8h-3.2v-8c0-1.2-0.3-2.1-0.9-2.8c-0.6-0.7-1.4-1-2.5-1c-1.1,0-1.9,0.3-2.7,1
				c-0.7,0.7-1.1,1.6-1.1,2.8v8h-3.2V44.3h3.1v1.8c1-1.4,2.4-2.1,4.4-2.1c1.1,0,2.1,0.2,2.9,0.7c0.9,0.5,1.5,1.1,2,1.9
				C141.7,44.8,143.4,43.9,145.9,43.9z"/>
		</g>
		<g>
			<path d="M160.5,43.9c2,0,3.6,0.7,4.9,2.1c1.3,1.4,1.9,3.2,1.9,5.5c0,0.3,0,0.7-0.1,1.2h-10.6c0.2,1.2,0.7,2.1,1.5,2.8
				c0.8,0.6,1.7,0.9,2.8,0.9c1.5,0,2.9-0.5,4.2-1.5l1.6,2.2c-1.6,1.4-3.6,2-5.9,2c-2.2,0-3.9-0.7-5.3-2.1c-1.4-1.4-2-3.2-2-5.5
				c0-2.3,0.7-4.1,2-5.5C156.7,44.6,158.4,43.9,160.5,43.9z M160.5,46.7c-1.1,0-1.9,0.3-2.6,1c-0.6,0.6-1.1,1.5-1.2,2.6h7.5
				c-0.2-1.1-0.6-2-1.2-2.6C162.3,47,161.5,46.7,160.5,46.7z"/>
		</g>
		<g>
			<path d="M58.3,66.1H60c0.7,0,1.2,0.2,1.6,0.6c0.4,0.4,0.6,0.9,0.6,1.5c0,0.6-0.2,1.1-0.6,1.5c-0.4,0.4-0.9,0.6-1.6,0.6h-1.6V66.1
				z M60,66.8h-1v2.9h1c0.5,0,0.8-0.1,1.1-0.4c0.2-0.3,0.4-0.6,0.4-1c0-0.4-0.1-0.8-0.4-1C60.8,66.9,60.5,66.8,60,66.8z"/>
		</g>
		<g>
			<path d="M64.1,67.4c0.4,0,0.7,0.1,1,0.4s0.4,0.6,0.4,1.1c0,0.1,0,0.1,0,0.2h-2.1c0,0.2,0.1,0.4,0.3,0.5c0.2,0.1,0.3,0.2,0.6,0.2
				c0.3,0,0.6-0.1,0.8-0.3l0.3,0.4c-0.3,0.3-0.7,0.4-1.2,0.4c-0.4,0-0.8-0.1-1-0.4c-0.3-0.3-0.4-0.6-0.4-1.1c0-0.4,0.1-0.8,0.4-1.1
				C63.3,67.5,63.7,67.4,64.1,67.4z M64.1,67.9c-0.2,0-0.4,0.1-0.5,0.2c-0.1,0.1-0.2,0.3-0.2,0.5h1.5c0-0.2-0.1-0.4-0.2-0.5
				C64.4,68,64.3,67.9,64.1,67.9z"/>
		</g>
		<g>
			<path d="M66.7,66v4.3h-0.6V66H66.7z"/>
		</g>
		<g>
			<path d="M67.6,66.1c0.1-0.1,0.2-0.1,0.3-0.1c0.1,0,0.2,0,0.3,0.1c0.1,0.1,0.1,0.2,0.1,0.3c0,0.1,0,0.2-0.1,0.3
				c-0.1,0.1-0.2,0.1-0.3,0.1c-0.1,0-0.2,0-0.3-0.1c-0.1-0.1-0.1-0.2-0.1-0.3C67.5,66.3,67.5,66.2,67.6,66.1z M68.2,67.4v2.8h-0.6
				v-2.8H68.2z"/>
		</g>
		<g>
			<path d="M71.7,67.4l-1.1,2.8h-0.7l-1.1-2.8h0.7l0.8,2.2l0.8-2.2H71.7z"/>
		</g>
		<g>
			<path d="M73.3,67.4c0.4,0,0.7,0.1,1,0.4c0.2,0.3,0.4,0.6,0.4,1.1c0,0.1,0,0.1,0,0.2h-2.1c0,0.2,0.1,0.4,0.3,0.5
				c0.2,0.1,0.3,0.2,0.6,0.2c0.3,0,0.6-0.1,0.8-0.3l0.3,0.4c-0.3,0.3-0.7,0.4-1.2,0.4c-0.4,0-0.8-0.1-1-0.4
				c-0.3-0.3-0.4-0.6-0.4-1.1c0-0.4,0.1-0.8,0.4-1.1C72.6,67.5,72.9,67.4,73.3,67.4z M73.3,67.9c-0.2,0-0.4,0.1-0.5,0.2
				c-0.1,0.1-0.2,0.3-0.2,0.5h1.5c0-0.2-0.1-0.4-0.2-0.5C73.7,68,73.5,67.9,73.3,67.9z"/>
		</g>
		<g>
			<path d="M76.8,67.4c0.2,0,0.3,0,0.5,0.1L77.1,68c-0.1-0.1-0.3-0.1-0.5-0.1c-0.2,0-0.4,0.1-0.5,0.2C76,68.3,76,68.5,76,68.7v1.6
				h-0.6v-2.8H76v0.3C76.2,67.5,76.4,67.4,76.8,67.4z"/>
		</g>
		<g>
			<path d="M78.9,67.4c0.4,0,0.7,0.1,1,0.4c0.2,0.3,0.4,0.6,0.4,1.1c0,0.1,0,0.1,0,0.2h-2.1c0,0.2,0.1,0.4,0.3,0.5
				c0.2,0.1,0.3,0.2,0.6,0.2c0.3,0,0.6-0.1,0.8-0.3l0.3,0.4c-0.3,0.3-0.7,0.4-1.2,0.4c-0.4,0-0.8-0.1-1-0.4
				c-0.3-0.3-0.4-0.6-0.4-1.1c0-0.4,0.1-0.8,0.4-1.1C78.1,67.5,78.5,67.4,78.9,67.4z M78.9,67.9c-0.2,0-0.4,0.1-0.5,0.2
				c-0.1,0.1-0.2,0.3-0.2,0.5h1.5c0-0.2-0.1-0.4-0.2-0.5C79.3,68,79.1,67.9,78.9,67.9z"/>
		</g>
		<g>
			<path d="M82.1,67.4c0.4,0,0.7,0.1,0.9,0.4V66h0.6v4.3H83v-0.3c-0.2,0.3-0.5,0.4-0.9,0.4c-0.4,0-0.7-0.1-1-0.4
				c-0.3-0.3-0.4-0.6-0.4-1.1c0-0.4,0.1-0.8,0.4-1.1C81.4,67.5,81.7,67.4,82.1,67.4z M82.2,67.9c-0.3,0-0.5,0.1-0.6,0.3
				c-0.2,0.2-0.2,0.4-0.2,0.6c0,0.3,0.1,0.5,0.2,0.6c0.2,0.2,0.4,0.3,0.6,0.3c0.3,0,0.5-0.1,0.6-0.3c0.2-0.2,0.2-0.4,0.2-0.7
				c0-0.3-0.1-0.5-0.2-0.7C82.7,68,82.5,67.9,82.2,67.9z"/>
		</g>
		<g>
			<path d="M87.6,67.4c0.4,0,0.7,0.1,1,0.4c0.3,0.3,0.4,0.6,0.4,1.1c0,0.4-0.1,0.8-0.4,1.1c-0.3,0.3-0.6,0.4-1,0.4
				c-0.4,0-0.7-0.1-0.9-0.4v0.3h-0.6V66h0.6v1.8C87,67.5,87.3,67.4,87.6,67.4z M87.6,67.9c-0.3,0-0.5,0.1-0.6,0.3
				c-0.2,0.2-0.2,0.4-0.2,0.7c0,0.3,0.1,0.5,0.2,0.7c0.2,0.2,0.4,0.3,0.6,0.3c0.3,0,0.5-0.1,0.6-0.3c0.2-0.2,0.2-0.4,0.2-0.6
				c0-0.3-0.1-0.5-0.2-0.6C88,68,87.8,67.9,87.6,67.9z"/>
		</g>
		<g>
			<path d="M92.4,67.4l-2.2,4h-0.7l1-1.8l-1.3-2.3h0.7l0.9,1.6l0.9-1.6H92.4z"/>
		</g>
		<g>
			<path d="M94.4,66.1H96c0.7,0,1.2,0.2,1.6,0.6c0.4,0.4,0.6,0.9,0.6,1.5c0,0.6-0.2,1.1-0.6,1.5c-0.4,0.4-0.9,0.6-1.6,0.6h-1.6V66.1
				z M96,66.8h-1v2.9h1c0.5,0,0.8-0.1,1.1-0.4c0.2-0.3,0.4-0.6,0.4-1c0-0.4-0.1-0.8-0.4-1C96.9,66.9,96.5,66.8,96,66.8z"/>
		</g>
		<g>
			<path d="M101.6,67.4v2.8H101v-0.3c-0.2,0.3-0.5,0.4-0.9,0.4c-0.4,0-0.7-0.1-1-0.4c-0.3-0.3-0.4-0.6-0.4-1.1
				c0-0.4,0.1-0.8,0.4-1.1c0.3-0.3,0.6-0.4,1-0.4c0.4,0,0.7,0.1,0.9,0.4v-0.3H101.6z M100.2,67.9c-0.3,0-0.5,0.1-0.6,0.3
				c-0.2,0.2-0.2,0.4-0.2,0.6c0,0.3,0.1,0.5,0.2,0.6c0.2,0.2,0.4,0.3,0.6,0.3c0.3,0,0.5-0.1,0.6-0.3c0.2-0.2,0.2-0.4,0.2-0.7
				c0-0.3-0.1-0.5-0.2-0.7C100.7,68,100.5,67.9,100.2,67.9z"/>
		</g>
		<g>
			<path d="M104.5,67.4V68h-1.1v1.2c0,0.2,0,0.3,0.1,0.4c0.1,0.1,0.2,0.1,0.3,0.1c0.2,0,0.4-0.1,0.6-0.2l0.2,0.5
				c-0.3,0.2-0.6,0.3-0.9,0.3c-0.3,0-0.6-0.1-0.8-0.3c-0.2-0.2-0.3-0.5-0.3-0.8V68h-0.6v-0.6h0.6v-0.9h0.6v0.9H104.5z"/>
		</g>
		<g>
			<path d="M107.9,67.4v2.8h-0.6v-0.3c-0.2,0.3-0.5,0.4-0.9,0.4c-0.4,0-0.7-0.1-1-0.4c-0.3-0.3-0.4-0.6-0.4-1.1
				c0-0.4,0.1-0.8,0.4-1.1c0.3-0.3,0.6-0.4,1-0.4c0.4,0,0.7,0.1,0.9,0.4v-0.3H107.9z M106.4,67.9c-0.3,0-0.5,0.1-0.6,0.3
				c-0.2,0.2-0.2,0.4-0.2,0.6c0,0.3,0.1,0.5,0.2,0.6c0.2,0.2,0.4,0.3,0.6,0.3c0.3,0,0.5-0.1,0.6-0.3c0.2-0.2,0.2-0.4,0.2-0.7
				c0-0.3-0.1-0.5-0.2-0.7C106.9,68,106.7,67.9,106.4,67.9z"/>
		</g>
		<g>
			<path d="M113.5,66.5l-0.3,0.5c-0.4-0.2-0.8-0.4-1.2-0.4c-0.3,0-0.5,0.1-0.7,0.2s-0.3,0.3-0.3,0.5c0,0.2,0.1,0.3,0.2,0.4
				c0.1,0.1,0.4,0.1,0.6,0.2l0.3,0c0.9,0.1,1.3,0.5,1.3,1.1c0,0.3-0.1,0.5-0.2,0.7c-0.2,0.2-0.4,0.4-0.6,0.4
				c-0.2,0.1-0.5,0.1-0.8,0.1c-0.3,0-0.6,0-0.9-0.1c-0.3-0.1-0.6-0.2-0.8-0.4l0.4-0.5c0.1,0.1,0.3,0.2,0.6,0.3
				c0.2,0.1,0.5,0.1,0.7,0.1c0.3,0,0.5-0.1,0.7-0.2c0.2-0.1,0.3-0.3,0.3-0.4c0-0.2-0.1-0.3-0.2-0.4c-0.2-0.1-0.4-0.2-0.7-0.2l-0.3,0
				c-0.1,0-0.3,0-0.4-0.1s-0.2-0.1-0.3-0.1s-0.2-0.1-0.3-0.2c-0.1-0.1-0.1-0.2-0.2-0.3c0-0.1-0.1-0.3-0.1-0.4c0-0.3,0.1-0.5,0.2-0.7
				c0.1-0.2,0.3-0.3,0.6-0.4c0.2-0.1,0.5-0.1,0.8-0.1C112.5,66,113,66.2,113.5,66.5z"/>
			<path d="M115.6,67.4c0.2,0,0.4,0,0.6,0.1c0.2,0.1,0.3,0.2,0.5,0.3l-0.4,0.4c-0.2-0.2-0.4-0.3-0.7-0.3c-0.2,0-0.4,0.1-0.6,0.3
				s-0.2,0.4-0.2,0.7s0.1,0.5,0.2,0.7c0.2,0.2,0.4,0.3,0.6,0.3c0.3,0,0.5-0.1,0.7-0.3l0.4,0.4c-0.3,0.3-0.6,0.5-1.1,0.5
				c-0.4,0-0.8-0.1-1.1-0.4s-0.4-0.6-0.4-1.1c0-0.4,0.1-0.8,0.4-1.1C114.8,67.5,115.2,67.4,115.6,67.4z"/>
		</g>
		<g>
			<path d="M117.2,66.1c0.1-0.1,0.2-0.1,0.3-0.1c0.1,0,0.2,0,0.3,0.1s0.1,0.2,0.1,0.3c0,0.1,0,0.2-0.1,0.3c-0.1,0.1-0.2,0.1-0.3,0.1
				c-0.1,0-0.2,0-0.3-0.1c-0.1-0.1-0.1-0.2-0.1-0.3C117.1,66.3,117.1,66.2,117.2,66.1z M117.9,67.4v2.8h-0.6v-2.8H117.9z"/>
		</g>
		<g>
			<path d="M119.9,67.4c0.4,0,0.7,0.1,1,0.4c0.2,0.3,0.4,0.6,0.4,1.1c0,0.1,0,0.1,0,0.2h-2.1c0,0.2,0.1,0.4,0.3,0.5
				c0.2,0.1,0.3,0.2,0.6,0.2c0.3,0,0.6-0.1,0.8-0.3l0.3,0.4c-0.3,0.3-0.7,0.4-1.2,0.4c-0.4,0-0.8-0.1-1-0.4
				c-0.3-0.3-0.4-0.6-0.4-1.1c0-0.4,0.1-0.8,0.4-1.1C119.2,67.5,119.5,67.4,119.9,67.4z M119.9,67.9c-0.2,0-0.4,0.1-0.5,0.2
				c-0.1,0.1-0.2,0.3-0.2,0.5h1.5c0-0.2-0.1-0.4-0.2-0.5C120.3,68,120.1,67.9,119.9,67.9z"/>
		</g>
		<g>
			<path d="M123.5,67.4c0.3,0,0.6,0.1,0.8,0.3c0.2,0.2,0.3,0.5,0.3,0.8v1.8H124v-1.6c0-0.2-0.1-0.4-0.2-0.5
				c-0.1-0.1-0.3-0.2-0.5-0.2c-0.2,0-0.4,0.1-0.5,0.2c-0.1,0.1-0.2,0.3-0.2,0.5v1.6H122v-2.8h0.6v0.3
				C122.8,67.5,123.1,67.4,123.5,67.4z"/>
		</g>
		<g>
			<path d="M126.7,67.4c0.2,0,0.4,0,0.6,0.1c0.2,0.1,0.3,0.2,0.5,0.3l-0.4,0.4c-0.2-0.2-0.4-0.3-0.7-0.3c-0.2,0-0.4,0.1-0.6,0.3
				s-0.2,0.4-0.2,0.7s0.1,0.5,0.2,0.7c0.2,0.2,0.4,0.3,0.6,0.3c0.3,0,0.5-0.1,0.7-0.3l0.4,0.4c-0.3,0.3-0.6,0.5-1.1,0.5
				s-0.8-0.1-1.1-0.4c-0.3-0.3-0.4-0.6-0.4-1.1c0-0.4,0.1-0.8,0.4-1.1C125.9,67.5,126.3,67.4,126.7,67.4z"/>
		</g>
		<g>
			<path d="M129.6,67.4c0.4,0,0.7,0.1,1,0.4s0.4,0.6,0.4,1.1c0,0.1,0,0.1,0,0.2h-2.1c0,0.2,0.1,0.4,0.3,0.5c0.2,0.1,0.3,0.2,0.6,0.2
				c0.3,0,0.6-0.1,0.8-0.3l0.3,0.4c-0.3,0.3-0.7,0.4-1.2,0.4c-0.4,0-0.8-0.1-1-0.4c-0.3-0.3-0.4-0.6-0.4-1.1c0-0.4,0.1-0.8,0.4-1.1
				C128.8,67.5,129.1,67.4,129.6,67.4z M129.6,67.9c-0.2,0-0.4,0.1-0.5,0.2c-0.1,0.1-0.2,0.3-0.2,0.5h1.5c0-0.2-0.1-0.4-0.2-0.5
				C129.9,68,129.7,67.9,129.6,67.9z"/>
		</g>
		<g>
			<path d="M136.9,66.1v4.2h-0.6l-2.3-3l0,3h-0.7v-4.2h0.6l2.3,3v-3H136.9z"/>
		</g>
		<g>
			<path d="M137.8,66.1c0.1-0.1,0.2-0.1,0.3-0.1c0.1,0,0.2,0,0.3,0.1c0.1,0.1,0.1,0.2,0.1,0.3c0,0.1,0,0.2-0.1,0.3
				c-0.1,0.1-0.2,0.1-0.3,0.1c-0.1,0-0.2,0-0.3-0.1c-0.1-0.1-0.1-0.2-0.1-0.3C137.7,66.3,137.7,66.2,137.8,66.1z M138.4,67.4v2.8
				h-0.6v-2.8H138.4z"/>
		</g>
		<g>
			<path d="M140.4,67.4c0.4,0,0.7,0.1,0.9,0.4v-0.3h0.6v2.6c0,0.4-0.1,0.8-0.4,1.1c-0.3,0.3-0.6,0.4-1.1,0.4c-0.2,0-0.4,0-0.6-0.1
				c-0.2-0.1-0.4-0.1-0.5-0.2l0.2-0.5c0.3,0.2,0.6,0.3,1,0.3c0.3,0,0.5-0.1,0.7-0.2s0.2-0.4,0.2-0.6v-0.2c-0.2,0.3-0.5,0.4-0.9,0.4
				c-0.2,0-0.3,0-0.5-0.1c-0.2-0.1-0.3-0.2-0.4-0.3c-0.1-0.1-0.2-0.3-0.3-0.5s-0.1-0.4-0.1-0.6c0-0.2,0-0.4,0.1-0.6
				c0.1-0.2,0.2-0.3,0.3-0.5c0.1-0.1,0.3-0.2,0.4-0.3C140.1,67.4,140.3,67.4,140.4,67.4z M140.6,67.9c-0.3,0-0.5,0.1-0.6,0.3
				c-0.2,0.2-0.2,0.4-0.2,0.6c0,0.2,0.1,0.5,0.2,0.6c0.2,0.2,0.4,0.3,0.6,0.3c0.2,0,0.4-0.1,0.6-0.3c0.2-0.2,0.2-0.4,0.2-0.6
				c0-0.3-0.1-0.5-0.2-0.6C141,68,140.8,67.9,140.6,67.9z"/>
		</g>
		<g>
			<path d="M144.1,67.4c0.4,0,0.7,0.1,1,0.4s0.4,0.6,0.4,1.1c0,0.1,0,0.1,0,0.2h-2.1c0,0.2,0.1,0.4,0.3,0.5c0.2,0.1,0.3,0.2,0.6,0.2
				c0.3,0,0.6-0.1,0.8-0.3l0.3,0.4c-0.3,0.3-0.7,0.4-1.2,0.4c-0.4,0-0.8-0.1-1-0.4c-0.3-0.3-0.4-0.6-0.4-1.1c0-0.4,0.1-0.8,0.4-1.1
				C143.3,67.5,143.7,67.4,144.1,67.4z M144.1,67.9c-0.2,0-0.4,0.1-0.5,0.2c-0.1,0.1-0.2,0.3-0.2,0.5h1.5c0-0.2-0.1-0.4-0.2-0.5
				C144.4,68,144.3,67.9,144.1,67.9z"/>
		</g>
		<g>
			<path d="M147.5,67.4c0.2,0,0.3,0,0.5,0.1l-0.1,0.6c-0.1-0.1-0.3-0.1-0.5-0.1c-0.2,0-0.4,0.1-0.5,0.2c-0.1,0.1-0.2,0.3-0.2,0.6
				v1.6h-0.6v-2.8h0.6v0.3C146.9,67.5,147.2,67.4,147.5,67.4z"/>
		</g>
		<g>
			<path d="M148.6,66.1c0.1-0.1,0.2-0.1,0.3-0.1c0.1,0,0.2,0,0.3,0.1c0.1,0.1,0.1,0.2,0.1,0.3c0,0.1,0,0.2-0.1,0.3
				c-0.1,0.1-0.2,0.1-0.3,0.1c-0.1,0-0.2,0-0.3-0.1c-0.1-0.1-0.1-0.2-0.1-0.3C148.4,66.3,148.5,66.2,148.6,66.1z M149.2,67.4v2.8
				h-0.6v-2.8H149.2z"/>
		</g>
		<g>
			<path d="M152.8,67.4v2.8h-0.6v-0.3c-0.2,0.3-0.5,0.4-0.9,0.4c-0.4,0-0.7-0.1-1-0.4c-0.3-0.3-0.4-0.6-0.4-1.1
				c0-0.4,0.1-0.8,0.4-1.1c0.3-0.3,0.6-0.4,1-0.4c0.4,0,0.7,0.1,0.9,0.4v-0.3H152.8z M151.4,67.9c-0.3,0-0.5,0.1-0.6,0.3
				c-0.2,0.2-0.2,0.4-0.2,0.6c0,0.3,0.1,0.5,0.2,0.6c0.2,0.2,0.4,0.3,0.6,0.3c0.3,0,0.5-0.1,0.6-0.3c0.2-0.2,0.2-0.4,0.2-0.7
				c0-0.3-0.1-0.5-0.2-0.7C151.8,68,151.6,67.9,151.4,67.9z"/>
		</g>
		<g>
			<path d="M159,70.3h-0.9l-0.5-0.5c-0.3,0.4-0.8,0.6-1.3,0.6c-0.4,0-0.7-0.1-0.9-0.3s-0.3-0.5-0.3-0.8c0-0.1,0-0.2,0.1-0.3
				c0-0.1,0.1-0.2,0.2-0.3c0.1-0.1,0.1-0.2,0.2-0.3c0.1-0.1,0.2-0.2,0.3-0.2c-0.2-0.2-0.3-0.4-0.4-0.5c-0.1-0.2-0.1-0.3-0.1-0.5
				c0-0.3,0.1-0.5,0.3-0.7c0.2-0.2,0.5-0.3,0.8-0.3c0.3,0,0.6,0.1,0.8,0.3c0.2,0.2,0.3,0.4,0.3,0.7c0,0.1,0,0.2-0.1,0.3
				c0,0.1-0.1,0.2-0.2,0.3s-0.2,0.2-0.2,0.2c-0.1,0.1-0.2,0.2-0.3,0.2l0.8,0.7l0.6-0.9l0.5,0.3l-0.5,0.8c0,0,0,0.1-0.1,0.2L159,70.3
				z M156.4,69.8c0.2,0,0.3,0,0.4-0.1c0.1-0.1,0.2-0.2,0.4-0.3l-0.9-0.9c-0.2,0.1-0.3,0.2-0.4,0.4c-0.1,0.1-0.1,0.2-0.1,0.4
				c0,0.2,0.1,0.3,0.2,0.4C156.1,69.7,156.2,69.8,156.4,69.8z M155.9,67.1c0,0.1,0,0.2,0.1,0.3c0.1,0.1,0.2,0.2,0.3,0.4
				c0.2-0.1,0.3-0.2,0.4-0.3c0.1-0.1,0.1-0.2,0.1-0.3c0-0.1,0-0.2-0.1-0.3c-0.1-0.1-0.2-0.1-0.4-0.1c-0.2,0-0.3,0-0.4,0.1
				C156,66.8,155.9,66.9,155.9,67.1z"/>
		</g>
		<g>
			<path d="M165.6,66.1v4.2H165v-3.4l-1.2,3h-0.7l-1.2-3v3.4h-0.7v-4.2h1l1.2,3l1.2-3H165.6z"/>
		</g>
		<g>
			<path d="M169.3,67.4v2.8h-0.6v-0.3c-0.2,0.3-0.5,0.4-0.9,0.4c-0.4,0-0.7-0.1-1-0.4s-0.4-0.6-0.4-1.1c0-0.4,0.1-0.8,0.4-1.1
				c0.3-0.3,0.6-0.4,1-0.4c0.4,0,0.7,0.1,0.9,0.4v-0.3H169.3z M167.9,67.9c-0.3,0-0.5,0.1-0.6,0.3c-0.2,0.2-0.2,0.4-0.2,0.6
				c0,0.3,0.1,0.5,0.2,0.6c0.2,0.2,0.4,0.3,0.6,0.3c0.3,0,0.5-0.1,0.6-0.3c0.2-0.2,0.2-0.4,0.2-0.7c0-0.3-0.1-0.5-0.2-0.7
				C168.3,68,168.1,67.9,167.9,67.9z"/>
		</g>
		<g>
			<path d="M170.8,66v4.3h-0.6V66H170.8z"/>
		</g>
		<g>
			<path d="M172.9,67.4c0.4,0,0.7,0.1,1,0.4s0.4,0.6,0.4,1.1c0,0.1,0,0.1,0,0.2h-2.1c0,0.2,0.1,0.4,0.3,0.5c0.2,0.1,0.3,0.2,0.6,0.2
				c0.3,0,0.6-0.1,0.8-0.3l0.3,0.4c-0.3,0.3-0.7,0.4-1.2,0.4c-0.4,0-0.8-0.1-1-0.4c-0.3-0.3-0.4-0.6-0.4-1.1c0-0.4,0.1-0.8,0.4-1.1
				C172.2,67.5,172.5,67.4,172.9,67.4z M172.9,67.9c-0.2,0-0.4,0.1-0.5,0.2c-0.1,0.1-0.2,0.3-0.2,0.5h1.5c0-0.2-0.1-0.4-0.2-0.5
				C173.3,68,173.1,67.9,172.9,67.9z"/>
		</g>
		<g>
			<path d="M177.1,67.4v0.5l-1.6,1.8h1.6v0.6h-2.4v-0.5l1.6-1.8h-1.5v-0.6H177.1z"/>
		</g>
		<g>
			<path d="M177.9,66.1c0.1-0.1,0.2-0.1,0.3-0.1c0.1,0,0.2,0,0.3,0.1s0.1,0.2,0.1,0.3c0,0.1,0,0.2-0.1,0.3c-0.1,0.1-0.2,0.1-0.3,0.1
				c-0.1,0-0.2,0-0.3-0.1c-0.1-0.1-0.1-0.2-0.1-0.3C177.8,66.3,177.8,66.2,177.9,66.1z M178.5,67.4v2.8h-0.6v-2.8H178.5z"/>
		</g>
	</g>
</g>
</svg>
