<?xml version="1.0" encoding="utf-8"?>
<!-- Generator: Adobe Illustrator 23.0.5, SVG Export Plug-In . SVG Version: 6.00 Build 0)  -->
<svg version="1.1" id="Layer_1" xmlns="http://www.w3.org/2000/svg" xmlns:xlink="http://www.w3.org/1999/xlink" x="0px" y="0px"
	 viewBox="0 0 228 85.9" style="enable-background:new 0 0 228 85.9;" xml:space="preserve">
<style type="text/css">
	.st0{fill:#231F20;}
	.st1{fill:none;}
	.st2{fill:#F16122;}
	.st3{fill:#E91D25;}
	.st4{fill:#F79E1D;}
</style>
<title>Artboard 2</title>
<g>
	<path class="st0" d="M91.3,63.6c0.1-1.1,1-1.9,2.1-1.9c1.1,0.1,1.9,1,1.9,2.1c-0.1,1-0.9,1.8-2,1.9c-1.1,0-2-0.9-2-1.9
		C91.3,63.7,91.3,63.7,91.3,63.6z M96.6,63.6v-3.3h-1.4v0.8c-0.5-0.6-1.3-1-2.1-1c-1.9,0.1-3.4,1.8-3.2,3.7c0.1,1.7,1.5,3.1,3.2,3.2
		c0.8,0,1.6-0.3,2.1-1v0.8h1.4L96.6,63.6L96.6,63.6z M144.8,63.6c0.1-1.1,1-1.9,2.1-1.9c1.1,0.1,1.9,1,1.9,2.1
		c-0.1,1.1-0.9,1.9-2,1.9c-1.1,0-2-0.9-2-1.9C144.8,63.7,144.8,63.7,144.8,63.6z M150.1,63.6v-5.9h-1.4v3.4c-0.5-0.6-1.3-1-2.1-1
		c-1.9,0.1-3.4,1.8-3.2,3.7c0.1,1.7,1.5,3.1,3.2,3.2c0.8,0,1.6-0.3,2.1-1v0.8h1.4L150.1,63.6L150.1,63.6z M114.3,61.5
		c0.9,0,1.6,0.7,1.7,1.6h-3.4C112.6,62.1,113.4,61.4,114.3,61.5z M114.3,60.2c-1.8,0-3.2,1.4-3.3,3.1c0,0.1,0,0.2,0,0.3
		c-0.1,1.8,1.2,3.3,3,3.4c0.1,0,0.2,0,0.3,0c1,0,1.9-0.3,2.7-0.9l-0.7-1.1c-0.5,0.4-1.2,0.7-1.9,0.7c-1,0.1-1.8-0.6-1.9-1.6h4.9
		c0-0.2,0-0.3,0-0.5c0.2-1.7-1.1-3.3-2.9-3.4C114.5,60.2,114.4,60.2,114.3,60.2L114.3,60.2z M131.6,63.7c0.1-1.1,1-1.9,2.1-1.9
		c1.1,0.1,1.9,1,1.9,2.1c-0.1,1-0.9,1.8-2,1.9c-1.1,0-2-0.9-2-1.9C131.5,63.8,131.5,63.7,131.6,63.7z M136.9,63.7v-3.3h-1.4v0.8
		c-0.5-0.6-1.3-1-2.1-1c-1.9,0.1-3.4,1.8-3.2,3.7c0.1,1.7,1.5,3.1,3.2,3.2c0.8,0,1.6-0.3,2.1-1v0.8h1.4V63.7L136.9,63.7z
		 M123.5,63.7c-0.1,1.8,1.4,3.4,3.2,3.5c0.1,0,0.2,0,0.3,0c0.9,0,1.7-0.2,2.4-0.8l-0.7-1.2c-0.5,0.4-1.1,0.6-1.7,0.6
		c-1.2-0.1-2-1.1-1.9-2.3c0.1-1,0.9-1.9,1.9-1.9c0.6,0,1.2,0.2,1.7,0.6l0.7-1.1c-0.7-0.6-1.5-0.8-2.4-0.8c-1.8-0.1-3.4,1.3-3.5,3.1
		C123.5,63.4,123.5,63.6,123.5,63.7z M141.9,60.2c-0.7,0-1.4,0.3-1.7,1v-0.8h-1.4v6.6h1.4v-3.7c0-1.1,0.5-1.7,1.4-1.7
		c0.3,0,0.6,0,0.9,0.2l0.4-1.3C142.6,60.2,142.2,60.2,141.9,60.2L141.9,60.2z M103.6,60.9c-0.8-0.5-1.7-0.7-2.7-0.7
		c-1.7,0-2.7,0.8-2.7,2.1c0,1.1,0.8,1.7,2.3,1.9l0.7,0.1c0.8,0.1,1.2,0.3,1.2,0.7s-0.5,0.8-1.5,0.8c-0.8,0-1.6-0.2-2.2-0.7L98,66.3
		c0.8,0.6,1.8,0.9,2.8,0.9c1.9,0,3-0.9,3-2.1c0-1.2-0.9-1.8-2.3-2l-0.7-0.1c-0.6-0.1-1.1-0.2-1.1-0.6s0.5-0.8,1.2-0.8
		c0.7,0,1.4,0.2,2,0.6L103.6,60.9L103.6,60.9z M122.1,60.2c-0.7,0-1.4,0.3-1.7,1v-0.8H119v6.6h1.4v-3.7c0-1.1,0.5-1.7,1.4-1.7
		c0.3,0,0.6,0,0.9,0.2l0.4-1.3C122.8,60.2,122.5,60.2,122.1,60.2L122.1,60.2z M109.9,60.4h-2.3v-2h-1.4v2h-1.3v1.2h1.3v3
		c0,1.5,0.6,2.5,2.3,2.5c0.6,0,1.3-0.2,1.8-0.5l-0.4-1.2c-0.4,0.2-0.8,0.4-1.2,0.4c-0.7,0-0.9-0.4-0.9-1.1v-2.9h2.3L109.9,60.4
		L109.9,60.4z M131.8,71c-0.6,0.1-1,0.6-0.9,1.1c0.1,0.5,0.4,0.9,0.9,0.9c0.6-0.1,1-0.6,0.9-1.1C132.7,71.4,132.3,71,131.8,71
		 M132.6,74.1h-1.4v6.6h1.4V74.1L132.6,74.1z M111.6,79.5c1.2,0.1,2.2-0.8,2.2-2c0.1-1.2-0.8-2.2-2-2.2c-1.2-0.1-2.2,0.8-2.2,2
		c0,0,0,0.1,0,0.1c-0.1,1.1,0.7,2,1.8,2.1C111.5,79.5,111.6,79.5,111.6,79.5 M115,71.5v9.2h-1.4v-0.8c-0.5,0.6-1.3,1-2.1,1
		c-1.9,0-3.5-1.5-3.5-3.5c0-1.9,1.5-3.5,3.5-3.5c0.8,0,1.6,0.3,2.1,1v-3.4L115,71.5z M129.4,74.2h-2.3v-2h-1.4v2h-1.3v1.2h1.3v3
		c0,1.5,0.6,2.4,2.3,2.4c0.6,0,1.2-0.2,1.8-0.5l-0.4-1.2c-0.4,0.2-0.8,0.4-1.2,0.4c-0.7,0-0.9-0.4-0.9-1.1v-2.9h2.3
		C129.4,75.4,129.4,74.2,129.4,74.2z M148.4,76.7c0.1-1.4-1-2.5-2.4-2.6c-0.1,0-0.2,0-0.3,0c-0.8,0-1.6,0.3-2,1v-0.8h-1.4v6.6h1.4
		v-3.7c-0.1-0.9,0.6-1.7,1.5-1.7c0.1,0,0.1,0,0.2,0c1,0,1.5,0.6,1.5,1.7v3.7h1.4L148.4,76.7 M135.4,77.4c0-1.1,1-2.1,2.1-2
		c1.1,0,2.1,1,2,2.1c0,1.1-0.9,2-2.1,2c-1.1,0-2-0.9-2.1-2C135.4,77.5,135.4,77.5,135.4,77.4 M141,77.4c0-2-1.5-3.6-3.5-3.6
		c-2,0-3.6,1.5-3.6,3.5c0,2,1.5,3.6,3.5,3.6c0,0,0.1,0,0.1,0c1.9,0.1,3.5-1.4,3.5-3.3C141,77.5,141,77.5,141,77.4 M117.8,77.4
		c0.1-1.1,1-1.9,2.1-1.9c1.1,0.1,1.9,1,1.9,2.1c-0.1,1-0.9,1.9-2,1.9c-1.1,0-2-0.9-2-2C117.8,77.5,117.8,77.5,117.8,77.4
		 M123.1,74.2h-1.4V75c-0.5-0.6-1.3-1-2.1-1c-1.9,0.1-3.4,1.8-3.3,3.7c0.1,1.8,1.5,3.1,3.3,3.3c0.8,0,1.6-0.3,2.1-1v0.8h1.4V74.2z
		 M106.9,76.7c0.1-1.4-1-2.5-2.4-2.6c-0.1,0-0.2,0-0.3,0c-0.8,0-1.5,0.3-2,1v-0.8h-1.4v6.6h1.4v-3.7c-0.1-0.9,0.6-1.7,1.5-1.7
		c0.1,0,0.2,0,0.3,0c1,0,1.5,0.6,1.5,1.7v3.7h1.4L106.9,76.7 M99,74.2h-1.4v3.6c0,1.2-0.7,1.7-1.6,1.7c-0.9,0-1.6-0.5-1.6-1.7v-3.6
		H93v3.7c0.2,1.7,1.7,2.9,3.4,2.7c1.4-0.2,2.5-1.3,2.7-2.7V74.2z M86.2,77.5c0-1.1,1-2,2.1-2c1.1,0,2,1,2,2.1c0,1.1-0.9,2-2.1,2
		c-1.1,0-2-0.9-2.1-2C86.2,77.5,86.2,77.5,86.2,77.5 M91.8,77.5c0-1.9-1.5-3.6-3.5-3.6c-1.9,0-3.6,1.5-3.6,3.5
		c0,1.9,1.5,3.6,3.5,3.6c0,0,0,0,0.1,0c1.9,0.1,3.5-1.4,3.5-3.3C91.8,77.6,91.8,77.5,91.8,77.5 M84.3,75.4H82v5.3h-1.4v-5.3h-1.2
		v-1.2h1.2v-1.1c-0.2-1.2,0.6-2.2,1.8-2.4c0.2,0,0.3,0,0.5,0c0.6,0,1.3,0.2,1.8,0.5l-0.5,1.2c-0.4-0.2-0.8-0.3-1.2-0.3
		c-0.5,0-0.8,0.4-0.8,1v1.1h2.2L84.3,75.4L84.3,75.4z M88.6,66.9v-4.1c0.1-1.4-1-2.5-2.4-2.6c-0.1,0-0.1,0-0.2,0
		c-0.9-0.1-1.8,0.4-2.3,1.2c-0.5-0.8-1.3-1.2-2.2-1.2c-0.8,0-1.5,0.3-1.9,1v-0.8h-1.4v6.6h1.4v-3.6c-0.1-0.8,0.5-1.6,1.3-1.7
		c0.1,0,0.2,0,0.3,0c0.9,0,1.4,0.6,1.4,1.7v3.7h1.5v-3.6c-0.1-0.8,0.5-1.6,1.3-1.7c0.1,0,0.2,0,0.3,0c1,0,1.4,0.6,1.4,1.7v3.7
		L88.6,66.9z"/>
	<rect x="74" y="5" class="st1" width="80" height="75.8"/>
	<g>
		<polygon class="st2" points="124.8,49.2 103.2,49.2 103.2,10.3 124.8,10.3 124.8,49.2 		"/>
		<path class="st3" d="M104.6,29.8c0-7.6,3.5-14.8,9.4-19.4c-10.7-8.4-26.3-6.5-34.7,4.2s-6.5,26.3,4.2,34.7c9,7,21.5,7,30.5,0
			C108,44.6,104.6,37.4,104.6,29.8L104.6,29.8z"/>
		<path class="st4" d="M154,29.8c0,13.7-11,24.7-24.7,24.8c-5.6,0-11-1.9-15.3-5.3c10.7-8.4,12.6-24,4.1-34.7
			c-1.2-1.5-2.6-2.9-4.1-4.1c10.7-8.4,26.3-6.6,34.7,4.1C152.1,18.9,154,24.3,154,29.8L154,29.8z"/>
	</g>
	<path class="st4" d="M153.2,45.1v-1H153l-0.3,0.7l-0.3-0.7h-0.2v1h0.2v-0.7l0.3,0.6h0.2l0.3-0.6v0.7L153.2,45.1z M151.6,45.1v-0.8
		h0.3v-0.1h-0.8v0.1h0.3V45L151.6,45.1z"/>
</g>
</svg>
